<svg xmlns="http://www.w3.org/2000/svg" width="980" height="640" viewBox="0 0 980 640" role="img" aria-labelledby="title desc">
<title id="title">RUNX1 isoform usage and expression across UV time course</title>
<desc id="desc">Stacked bars show transcript isoform usage fractions; line shows total gene TPM.</desc>
<rect width="100%" height="100%" fill="#ffffff"/>
<style>
text { font-family: Arial, Helvetica, sans-serif; fill: #222; }
.axis { stroke: #555; stroke-width: 1; }
.grid { stroke: #dddddd; stroke-width: 1; }
</style>
<text x="490" y="32" text-anchor="middle" font-size="20" font-weight="700">RUNX1 isoform usage and expression across UV time course</text>
<text x="80" y="62" font-size="13">Isoform usage fraction inside gene</text>
<text x="500" y="62" font-size="13">Total gene expression</text>
<line x1="80" y1="412.0" x2="380" y2="412.0" class="grid"/>
<text x="72" y="416.0" text-anchor="end" font-size="11">0</text>
<line x1="80" y1="329.5" x2="380" y2="329.5" class="grid"/>
<text x="72" y="333.5" text-anchor="end" font-size="11">0.25</text>
<line x1="80" y1="247.0" x2="380" y2="247.0" class="grid"/>
<text x="72" y="251.0" text-anchor="end" font-size="11">0.5</text>
<line x1="80" y1="164.5" x2="380" y2="164.5" class="grid"/>
<text x="72" y="168.5" text-anchor="end" font-size="11">0.75</text>
<line x1="80" y1="82.0" x2="380" y2="82.0" class="grid"/>
<text x="72" y="86.0" text-anchor="end" font-size="11">1</text>
<line x1="80" y1="82" x2="80" y2="412" class="axis"/>
<line x1="80" y1="412" x2="380" y2="412" class="axis"/>
<rect x="98.0" y="163.1" width="42" height="248.9" fill="#4f7f60"/>
<rect x="98.0" y="146.3" width="42" height="16.8" fill="#b8792e"/>
<rect x="98.0" y="105.8" width="42" height="40.5" fill="#2f6f9f"/>
<rect x="98.0" y="82.0" width="42" height="23.8" fill="#b83a4b"/>
<text x="119.0" y="434" text-anchor="middle" font-size="12">control</text>
<rect x="173.0" y="265.0" width="42" height="147.0" fill="#4f7f60"/>
<rect x="173.0" y="164.8" width="42" height="100.2" fill="#b8792e"/>
<rect x="173.0" y="125.6" width="42" height="39.2" fill="#2f6f9f"/>
<rect x="173.0" y="82.0" width="42" height="43.6" fill="#b83a4b"/>
<text x="194.0" y="434" text-anchor="middle" font-size="12">12m UV</text>
<rect x="248.0" y="267.0" width="42" height="145.0" fill="#4f7f60"/>
<rect x="248.0" y="162.6" width="42" height="104.4" fill="#b8792e"/>
<rect x="248.0" y="115.2" width="42" height="47.3" fill="#2f6f9f"/>
<rect x="248.0" y="82.0" width="42" height="33.2" fill="#b83a4b"/>
<text x="269.0" y="434" text-anchor="middle" font-size="12">30m UV</text>
<rect x="323.0" y="303.9" width="42" height="108.1" fill="#4f7f60"/>
<rect x="323.0" y="115.4" width="42" height="188.5" fill="#b8792e"/>
<rect x="323.0" y="93.2" width="42" height="22.2" fill="#2f6f9f"/>
<rect x="323.0" y="82.0" width="42" height="11.2" fill="#b83a4b"/>
<text x="344.0" y="434" text-anchor="middle" font-size="12">60m UV</text>
<rect x="80" y="440" width="12" height="12" fill="#4f7f60"/>
<text x="100" y="450" font-size="12">RUNX1-202 (protein_coding)</text>
<rect x="80" y="464" width="12" height="12" fill="#b8792e"/>
<text x="100" y="474" font-size="12">RUNX1-203 (protein_coding)</text>
<rect x="80" y="488" width="12" height="12" fill="#2f6f9f"/>
<text x="100" y="498" font-size="12">RUNX1-205 (protein_coding)</text>
<rect x="80" y="512" width="12" height="12" fill="#b83a4b"/>
<text x="100" y="522" font-size="12">Other expressed isoforms (mixed)</text>
<line x1="500" y1="302.0" x2="880" y2="302.0" class="grid"/>
<text x="492" y="306.0" text-anchor="end" font-size="11">0.0</text>
<line x1="500" y1="192.0" x2="880" y2="192.0" class="grid"/>
<text x="492" y="196.0" text-anchor="end" font-size="11">1.2</text>
<line x1="500" y1="82.0" x2="880" y2="82.0" class="grid"/>
<text x="492" y="86.0" text-anchor="end" font-size="11">2.5</text>
<line x1="500" y1="82" x2="500" y2="302" class="axis"/>
<line x1="500" y1="302" x2="880" y2="302" class="axis"/>
<polyline points="500.0,82.0 626.7,144.6 753.3,127.2 880.0,90.1" fill="none" stroke="#222222" stroke-width="2"/>
<circle cx="500.0" cy="82.0" r="4" fill="#222222"/>
<text x="500.0" y="72.0" text-anchor="middle" font-size="11">2.5</text>
<text x="500.0" y="324" text-anchor="middle" font-size="12">control</text>
<circle cx="626.7" cy="144.6" r="4" fill="#222222"/>
<text x="626.7" y="134.6" text-anchor="middle" font-size="11">1.8</text>
<text x="626.7" y="324" text-anchor="middle" font-size="12">12m UV</text>
<circle cx="753.3" cy="127.2" r="4" fill="#222222"/>
<text x="753.3" y="117.2" text-anchor="middle" font-size="11">2.0</text>
<text x="753.3" y="324" text-anchor="middle" font-size="12">30m UV</text>
<circle cx="880.0" cy="90.1" r="4" fill="#222222"/>
<text x="880.0" y="80.1" text-anchor="middle" font-size="11">2.4</text>
<text x="880.0" y="324" text-anchor="middle" font-size="12">60m UV</text>
<text x="500" y="350" font-size="13">Mean TPM by isoform</text>
<text x="500" y="374" font-size="11">isoform</text>
<text x="690" y="374" font-size="11">control</text>
<text x="752" y="374" font-size="11">12m UV</text>
<text x="814" y="374" font-size="11">30m UV</text>
<text x="876" y="374" font-size="11">60m UV</text>
<text x="500" y="396" font-size="11">RUNX1-202</text>
<text x="690" y="396" font-size="11">1.86</text>
<text x="752" y="396" font-size="11">0.79</text>
<text x="814" y="396" font-size="11">0.86</text>
<text x="876" y="396" font-size="11">0.78</text>
<text x="500" y="418" font-size="11">RUNX1-203</text>
<text x="690" y="418" font-size="11">0.13</text>
<text x="752" y="418" font-size="11">0.54</text>
<text x="814" y="418" font-size="11">0.62</text>
<text x="876" y="418" font-size="11">1.36</text>
<text x="500" y="440" font-size="11">RUNX1-205</text>
<text x="690" y="440" font-size="11">0.30</text>
<text x="752" y="440" font-size="11">0.21</text>
<text x="814" y="440" font-size="11">0.28</text>
<text x="876" y="440" font-size="11">0.16</text>
<text x="500" y="462" font-size="11">Other expressed isoforms</text>
<text x="690" y="462" font-size="11">0.18</text>
<text x="752" y="462" font-size="11">0.23</text>
<text x="814" y="462" font-size="11">0.20</text>
<text x="876" y="462" font-size="11">0.08</text>
</svg>
