<svg xmlns="http://www.w3.org/2000/svg" width="760" height="430" viewBox="0 0 760 430">
<rect width="100%" height="100%" fill="#ffffff"/>
<style>
text { font-family: Arial, Helvetica, sans-serif; fill: #222; }
.axis { stroke: #555; stroke-width: 1; }
.grid { stroke: #dddddd; stroke-width: 1; }
.up { fill: #b83a4b; }
.down { fill: #2f6f9f; }
.usageup { fill: #b8792e; }
.usagedown { fill: #4f7f60; }
</style>
<text x="380.0" y="28" text-anchor="middle" font-size="18" font-weight="700">Protein-coding DTU isoform candidates</text>
<line x1="82" y1="358" x2="730" y2="358" class="axis"/>
<line x1="82" y1="62" x2="82" y2="358" class="axis"/>
<line x1="82" y1="358.0" x2="730" y2="358.0" class="grid"/>
<text x="72" y="362.0" text-anchor="end" font-size="12">0</text>
<line x1="82" y1="259.3" x2="730" y2="259.3" class="grid"/>
<text x="72" y="263.3" text-anchor="end" font-size="12">250</text>
<line x1="82" y1="160.7" x2="730" y2="160.7" class="grid"/>
<text x="72" y="164.7" text-anchor="end" font-size="12">500</text>
<line x1="82" y1="62.0" x2="730" y2="62.0" class="grid"/>
<text x="72" y="66.0" text-anchor="end" font-size="12">750</text>
<text x="190.0" y="402" text-anchor="middle" font-size="13">12 min</text>
<rect x="128.0" y="139.4" width="54" height="218.6" class="usagedown"/>
<text x="155.0" y="131.4" text-anchor="middle" font-size="12">554</text>
<text x="155.0" y="382" text-anchor="middle" font-size="11">usage_down</text>
<rect x="198.0" y="144.1" width="54" height="213.9" class="usageup"/>
<text x="225.0" y="136.1" text-anchor="middle" font-size="12">542</text>
<text x="225.0" y="382" text-anchor="middle" font-size="11">usage_up</text>
<text x="406.0" y="402" text-anchor="middle" font-size="13">30 min</text>
<rect x="344.0" y="153.6" width="54" height="204.4" class="usagedown"/>
<text x="371.0" y="145.6" text-anchor="middle" font-size="12">518</text>
<text x="371.0" y="382" text-anchor="middle" font-size="11">usage_down</text>
<rect x="414.0" y="136.2" width="54" height="221.8" class="usageup"/>
<text x="441.0" y="128.2" text-anchor="middle" font-size="12">562</text>
<text x="441.0" y="382" text-anchor="middle" font-size="11">usage_up</text>
<text x="622.0" y="402" text-anchor="middle" font-size="13">60 min</text>
<rect x="560.0" y="108.6" width="54" height="249.4" class="usagedown"/>
<text x="587.0" y="100.6" text-anchor="middle" font-size="12">632</text>
<text x="587.0" y="382" text-anchor="middle" font-size="11">usage_down</text>
<rect x="630.0" y="63.6" width="54" height="294.4" class="usageup"/>
<text x="657.0" y="55.6" text-anchor="middle" font-size="12">746</text>
<text x="657.0" y="382" text-anchor="middle" font-size="11">usage_up</text>
<text x="24" y="210.0" transform="rotate(-90 24 210.0)" text-anchor="middle" font-size="13">candidate count</text>
</svg>
