<svg xmlns="http://www.w3.org/2000/svg" width="900" height="560" viewBox="0 0 900 560">
<rect width="100%" height="100%" fill="#ffffff"/>
<style>
text { font-family: Arial, Helvetica, sans-serif; fill: #222; }
.axis { stroke: #555; stroke-width: 1; }
.grid { stroke: #dddddd; stroke-width: 1; }
.up { fill: #b83a4b; }
.down { fill: #2f6f9f; }
.usageup { fill: #b8792e; }
.usagedown { fill: #4f7f60; }
</style>
<text x="450" y="28" text-anchor="middle" font-size="18" font-weight="700">Top DTU protein-coding isoform candidates</text>
<text x="570" y="52" text-anchor="middle" font-size="12">isoform usage fraction inside its gene</text>
<line x1="330" y1="64" x2="810" y2="64" class="axis"/>
<line x1="330.0" y1="59" x2="330.0" y2="69" class="axis"/>
<text x="330.0" y="84" text-anchor="middle" font-size="11">0</text>
<line x1="450.0" y1="59" x2="450.0" y2="69" class="axis"/>
<text x="450.0" y="84" text-anchor="middle" font-size="11">0.25</text>
<line x1="570.0" y1="59" x2="570.0" y2="69" class="axis"/>
<text x="570.0" y="84" text-anchor="middle" font-size="11">0.5</text>
<line x1="690.0" y1="59" x2="690.0" y2="69" class="axis"/>
<text x="690.0" y="84" text-anchor="middle" font-size="11">0.75</text>
<line x1="810.0" y1="59" x2="810.0" y2="69" class="axis"/>
<text x="810.0" y="84" text-anchor="middle" font-size="11">1</text>
<text x="18" y="110.0" font-size="12">AL139260.3 AL139260.3-204 (60m)</text>
<line x1="330" y1="106.0" x2="810" y2="106.0" class="grid"/>
<line x1="330.0" y1="106.0" x2="804.8" y2="106.0" stroke="#777" stroke-width="1.8"/>
<circle cx="330.0" cy="106.0" r="5" fill="#2f6f9f"/>
<circle cx="804.8" cy="106.0" r="5" class="usageup"/>
<text x="826" y="110.0" font-size="11">Δ +0.99</text>
<text x="18" y="144.0" font-size="12">EGR2 EGR2-201 (30m)</text>
<line x1="330" y1="140.0" x2="810" y2="140.0" class="grid"/>
<line x1="330.0" y1="140.0" x2="767.7" y2="140.0" stroke="#777" stroke-width="1.8"/>
<circle cx="330.0" cy="140.0" r="5" fill="#2f6f9f"/>
<circle cx="767.7" cy="140.0" r="5" class="usageup"/>
<text x="826" y="144.0" font-size="11">Δ +0.91</text>
<text x="18" y="178.0" font-size="12">CXCL8 CXCL8-201 (60m)</text>
<line x1="330" y1="174.0" x2="810" y2="174.0" class="grid"/>
<line x1="330.0" y1="174.0" x2="703.8" y2="174.0" stroke="#777" stroke-width="1.8"/>
<circle cx="330.0" cy="174.0" r="5" fill="#2f6f9f"/>
<circle cx="703.8" cy="174.0" r="5" class="usageup"/>
<text x="826" y="178.0" font-size="11">Δ +0.78</text>
<text x="18" y="212.0" font-size="12">EGR2 EGR2-201 (60m)</text>
<line x1="330" y1="208.0" x2="810" y2="208.0" class="grid"/>
<line x1="330.0" y1="208.0" x2="690.6" y2="208.0" stroke="#777" stroke-width="1.8"/>
<circle cx="330.0" cy="208.0" r="5" fill="#2f6f9f"/>
<circle cx="690.6" cy="208.0" r="5" class="usageup"/>
<text x="826" y="212.0" font-size="11">Δ +0.75</text>
<text x="18" y="246.0" font-size="12">HDAC11 HDAC11-201 (30m)</text>
<line x1="330" y1="242.0" x2="810" y2="242.0" class="grid"/>
<line x1="662.1" y1="242.0" x2="330.0" y2="242.0" stroke="#777" stroke-width="1.8"/>
<circle cx="662.1" cy="242.0" r="5" fill="#2f6f9f"/>
<circle cx="330.0" cy="242.0" r="5" class="usagedown"/>
<text x="826" y="246.0" font-size="11">Δ -0.69</text>
<text x="18" y="280.0" font-size="12">SAPCD1 SAPCD1-208 (60m)</text>
<line x1="330" y1="276.0" x2="810" y2="276.0" class="grid"/>
<line x1="330.0" y1="276.0" x2="633.3" y2="276.0" stroke="#777" stroke-width="1.8"/>
<circle cx="330.0" cy="276.0" r="5" fill="#2f6f9f"/>
<circle cx="633.3" cy="276.0" r="5" class="usageup"/>
<text x="826" y="280.0" font-size="11">Δ +0.63</text>
<text x="18" y="314.0" font-size="12">HDAC11 HDAC11-213 (30m)</text>
<line x1="330" y1="310.0" x2="810" y2="310.0" class="grid"/>
<line x1="330.0" y1="310.0" x2="618.7" y2="310.0" stroke="#777" stroke-width="1.8"/>
<circle cx="330.0" cy="310.0" r="5" fill="#2f6f9f"/>
<circle cx="618.7" cy="310.0" r="5" class="usageup"/>
<text x="826" y="314.0" font-size="11">Δ +0.60</text>
<text x="18" y="348.0" font-size="12">SPAG1 SPAG1-202 (30m)</text>
<line x1="330" y1="344.0" x2="810" y2="344.0" class="grid"/>
<line x1="443.3" y1="344.0" x2="709.2" y2="344.0" stroke="#777" stroke-width="1.8"/>
<circle cx="443.3" cy="344.0" r="5" fill="#2f6f9f"/>
<circle cx="709.2" cy="344.0" r="5" class="usageup"/>
<text x="826" y="348.0" font-size="11">Δ +0.55</text>
<text x="18" y="382.0" font-size="12">SKIL SKIL-201 (60m)</text>
<line x1="330" y1="378.0" x2="810" y2="378.0" class="grid"/>
<line x1="672.9" y1="378.0" x2="410.2" y2="378.0" stroke="#777" stroke-width="1.8"/>
<circle cx="672.9" cy="378.0" r="5" fill="#2f6f9f"/>
<circle cx="410.2" cy="378.0" r="5" class="usagedown"/>
<text x="826" y="382.0" font-size="11">Δ -0.55</text>
<text x="18" y="416.0" font-size="12">ZNF831 ZNF831-203 (60m)</text>
<line x1="330" y1="412.0" x2="810" y2="412.0" class="grid"/>
<line x1="553.4" y1="412.0" x2="810.0" y2="412.0" stroke="#777" stroke-width="1.8"/>
<circle cx="553.4" cy="412.0" r="5" fill="#2f6f9f"/>
<circle cx="810.0" cy="412.0" r="5" class="usageup"/>
<text x="826" y="416.0" font-size="11">Δ +0.53</text>
<text x="18" y="450.0" font-size="12">ZNF831 ZNF831-201 (60m)</text>
<line x1="330" y1="446.0" x2="810" y2="446.0" class="grid"/>
<line x1="586.6" y1="446.0" x2="330.0" y2="446.0" stroke="#777" stroke-width="1.8"/>
<circle cx="586.6" cy="446.0" r="5" fill="#2f6f9f"/>
<circle cx="330.0" cy="446.0" r="5" class="usagedown"/>
<text x="826" y="450.0" font-size="11">Δ -0.53</text>
<text x="18" y="484.0" font-size="12">RUNX1 RUNX1-203 (60m)</text>
<line x1="330" y1="480.0" x2="810" y2="480.0" class="grid"/>
<line x1="353.3" y1="480.0" x2="603.5" y2="480.0" stroke="#777" stroke-width="1.8"/>
<circle cx="353.3" cy="480.0" r="5" fill="#2f6f9f"/>
<circle cx="603.5" cy="480.0" r="5" class="usageup"/>
<text x="826" y="484.0" font-size="11">Δ +0.52</text>
<circle cx="330" cy="526" r="5" fill="#2f6f9f"/>
<text x="342" y="530" font-size="12">control</text>
<circle cx="420" cy="526" r="5" class="usageup"/>
<text x="432" y="530" font-size="12">UV usage up</text>
<circle cx="540" cy="526" r="5" class="usagedown"/>
<text x="552" y="530" font-size="12">UV usage down</text>
</svg>
